<svg xmlns="http://www.w3.org/2000/svg" width="64" height="64" viewBox="0 0 200 200">
  <g><path style="opacity:1" fill="#63a5f8" d="M 127.5,59.5 C 128.685,66.798 129.685,74.1313 130.5,81.5C 129.023,85.9672 128.357,90.6339 128.5,95.5C 126.181,104.351 121.848,112.184 115.5,119C 104.236,124.202 97.5691,120.702 95.5,108.5C 96.5762,103.681 98.7428,99.3476 102,95.5C 110.908,70.6973 103.408,53.0306 79.5,42.5C 58.0154,38.8229 42.8488,46.8229 34,66.5C 31.6568,76.3724 32.3235,86.039 36,95.5C 41,101.833 46,108.167 51,114.5C 51.5369,123.467 47.3702,128.8 38.5,130.5C 31.5831,129.104 26.0831,125.437 22,119.5C 7.72991,101.319 3.72991,80.9858 10,58.5C 13.5128,48.7947 19.0128,40.4614 26.5,33.5C 27.8498,32.0499 29.5165,31.3832 31.5,31.5C 32.545,28.6149 34.545,26.4482 37.5,25C 66.6826,10.6757 92.8492,14.8423 116,37.5C 121.687,43.8744 125.52,51.2078 127.5,59.5 Z"/></g>
  <g><path style="opacity:1" fill="#60a4fc" d="M 59.5,18.5 C 64.8437,18.334 70.1771,18.5006 75.5,19C 73.6992,19.3173 73.3659,19.984 74.5,21C 76.2556,21.2022 77.9223,21.7022 79.5,22.5C 72.8581,23.3309 66.1915,23.8309 59.5,24C 58.5,24.3333 57.5,24.6667 56.5,25C 56.8333,25.3333 57.1667,25.6667 57.5,26C 65.1992,26.0396 72.8659,25.5396 80.5,24.5C 81.8333,25.1667 82.8333,26.1667 83.5,27.5C 71.4871,28.5125 59.4871,29.3459 47.5,30C 45.9386,29.059 44.6053,27.8924 43.5,26.5C 49.2935,24.4865 54.6269,21.8199 59.5,18.5 Z"/></g>
  <g><path style="opacity:1" fill="#92bff4" d="M 127.5,59.5 C 128.117,59.6107 128.617,59.944 129,60.5C 132.485,72.3713 132.318,84.0379 128.5,95.5C 128.357,90.6339 129.023,85.9672 130.5,81.5C 129.685,74.1313 128.685,66.798 127.5,59.5 Z"/></g>
  <g><path style="opacity:1" fill="#3268e4" d="M 91.5,95.5 C 91.5,94.5 91.5,93.5 91.5,92.5C 90.5,92.5 89.5,92.5 88.5,92.5C 88.5,91.1667 88.5,89.8333 88.5,88.5C 89.8333,88.5 91.1667,88.5 92.5,88.5C 92.9783,85.7224 91.9783,83.7224 89.5,82.5C 83.9308,87.9613 84.2641,92.9613 90.5,97.5C 89.1799,100.14 87.8466,102.807 86.5,105.5C 83.4955,111.544 82.8288,117.877 84.5,124.5C 84.5,125.5 84.5,126.5 84.5,127.5C 83.1481,119.622 81.4814,111.622 79.5,103.5C 79.5622,98.3379 80.2289,98.3379 81.5,103.5C 82.9213,100.991 84.5879,98.6572 86.5,96.5C 85.675,95.6143 84.675,95.281 83.5,95.5C 83.3347,91.8183 83.5014,88.1516 84,84.5C 86.0386,83.0217 86.8719,81.0217 86.5,78.5C 83.4816,78.3354 80.4816,78.502 77.5,79C 78.6956,79.6543 78.6956,80.1543 77.5,80.5C 76.5832,79.8728 75.5832,79.5394 74.5,79.5C 81.5761,76.0923 87.7427,77.4256 93,83.5C 95.3334,87.99 94.8334,91.99 91.5,95.5 Z"/></g>
  <g><path style="opacity:1" fill="#4271de" d="M 179.5,101.5 C 180.776,103.562 181.61,105.896 182,108.5C 182.74,116.868 182.574,125.202 181.5,133.5C 181.167,133.5 180.833,133.5 180.5,133.5C 180.737,122.802 180.404,112.135 179.5,101.5 Z"/></g>
  <g><path style="opacity:1" fill="#9abded" d="M 59.5,130.5 C 60.9238,132.515 61.5905,134.848 61.5,137.5C 60.0762,135.485 59.4095,133.152 59.5,130.5 Z"/></g>
  <g><path style="opacity:1" fill="#a1b9eb" d="M 180.5,133.5 C 180.833,133.5 181.167,133.5 181.5,133.5C 181.741,135.898 181.074,137.898 179.5,139.5C 179.517,137.435 179.85,135.435 180.5,133.5 Z"/></g>
  <g><path style="opacity:1" fill="#2864e9" d="M 179.5,101.5 C 180.404,112.135 180.737,122.802 180.5,133.5C 179.85,135.435 179.517,137.435 179.5,139.5C 171.077,162.406 154.744,176.239 130.5,181C 123.087,181.796 115.754,181.63 108.5,180.5C 104.767,178.589 100.767,177.256 96.5,176.5C 78.8229,168.826 67.1562,155.826 61.5,137.5C 61.5905,134.848 60.9238,132.515 59.5,130.5C 59.3336,122.16 59.5003,113.827 60,105.5C 61.3914,101.471 62.7248,97.4709 64,93.5C 66,90.1667 68,86.8333 70,83.5C 71.3712,81.9586 72.8712,80.6253 74.5,79.5C 75.5832,79.5394 76.5832,79.8728 77.5,80.5C 78.6956,80.1543 78.6956,79.6543 77.5,79C 80.4816,78.502 83.4816,78.3354 86.5,78.5C 86.8719,81.0217 86.0386,83.0217 84,84.5C 83.5014,88.1516 83.3347,91.8183 83.5,95.5C 84.675,95.281 85.675,95.6143 86.5,96.5C 84.5879,98.6572 82.9213,100.991 81.5,103.5C 80.2289,98.3379 79.5622,98.3379 79.5,103.5C 81.4814,111.622 83.1481,119.622 84.5,127.5C 88.5723,142.74 98.239,152.573 113.5,157C 132.565,158.385 146.399,150.551 155,133.5C 158.695,122.566 158.029,111.9 153,101.5C 147.958,96.1267 143.292,90.46 139,84.5C 138.375,72.7913 143.875,67.6247 155.5,69C 167.541,76.8712 175.541,87.7045 179.5,101.5 Z"/></g>
  <g><path style="opacity:1" fill="#b6d1f7" d="M 86.5,105.5 C 84.9033,111.633 84.2367,117.966 84.5,124.5C 82.8288,117.877 83.4955,111.544 86.5,105.5 Z"/></g>
  <g><path style="opacity:1" fill="#2861f0" d="M 91.5,95.5 C 91.6716,96.4916 91.3382,97.1583 90.5,97.5C 84.2641,92.9613 83.9308,87.9613 89.5,82.5C 91.9783,83.7224 92.9783,85.7224 92.5,88.5C 91.1667,88.5 89.8333,88.5 88.5,88.5C 88.5,89.8333 88.5,91.1667 88.5,92.5C 89.5,92.5 90.5,92.5 91.5,92.5C 91.5,93.5 91.5,94.5 91.5,95.5 Z"/></g>
  <g><path style="opacity:1" fill="#5c80dc" d="M 96.5,176.5 C 100.767,177.256 104.767,178.589 108.5,180.5C 104.085,180.139 100.085,178.806 96.5,176.5 Z"/></g>
</svg>
